<?xml version="1.0" encoding="utf-8"?>
<!-- Generator: Adobe Illustrator 16.2.1, SVG Export Plug-In . SVG Version: 6.00 Build 0)  -->
<!DOCTYPE svg PUBLIC "-//W3C//DTD SVG 1.1//EN" "http://www.w3.org/Graphics/SVG/1.1/DTD/svg11.dtd">
<svg version="1.1" id="Layer_1" xmlns="http://www.w3.org/2000/svg" xmlns:xlink="http://www.w3.org/1999/xlink" x="0px" y="0px"
	 width="90.852px" height="20px" viewBox="0 0 90.852 20" enable-background="new 0 0 90.852 20" xml:space="preserve">
<path fill="#AEAEAE" d="M23.191,12.351c0.147,0.231,0.34,0.416,0.579,0.553c0.239,0.137,0.51,0.233,0.811,0.293
	c0.3,0.06,0.61,0.09,0.929,0.09c0.246,0,0.503-0.018,0.773-0.055c0.27-0.035,0.519-0.1,0.746-0.194
	c0.228-0.095,0.414-0.234,0.562-0.419c0.147-0.184,0.221-0.419,0.221-0.705c0-0.391-0.153-0.688-0.46-0.89
	c-0.307-0.202-0.69-0.365-1.151-0.491c-0.46-0.124-0.961-0.237-1.5-0.338c-0.541-0.102-1.041-0.244-1.501-0.428
	c-0.46-0.185-0.843-0.443-1.151-0.776c-0.307-0.332-0.46-0.794-0.46-1.389c0-0.463,0.107-0.861,0.321-1.193
	c0.216-0.333,0.491-0.603,0.83-0.812c0.337-0.208,0.718-0.362,1.141-0.462c0.424-0.102,0.845-0.152,1.261-0.152
	c0.541,0,1.038,0.044,1.492,0.134C27.088,5.205,27.49,5.36,27.84,5.58c0.351,0.219,0.629,0.516,0.838,0.89
	c0.208,0.375,0.331,0.841,0.367,1.399h-1.564c-0.025-0.297-0.104-0.543-0.239-0.74s-0.307-0.353-0.516-0.473
	c-0.208-0.118-0.438-0.204-0.69-0.257c-0.251-0.055-0.505-0.08-0.763-0.08c-0.233,0-0.471,0.017-0.709,0.053
	C24.324,6.408,24.105,6.47,23.91,6.56c-0.197,0.088-0.356,0.208-0.479,0.355c-0.123,0.149-0.184,0.342-0.184,0.579
	c0,0.262,0.095,0.479,0.285,0.651c0.19,0.173,0.433,0.315,0.727,0.428c0.295,0.113,0.626,0.208,0.995,0.285
	c0.368,0.077,0.737,0.158,1.104,0.241c0.393,0.083,0.776,0.184,1.151,0.303c0.374,0.119,0.706,0.275,0.994,0.473
	c0.289,0.196,0.522,0.443,0.699,0.74c0.179,0.297,0.268,0.665,0.268,1.105c0,0.559-0.12,1.021-0.36,1.39
	c-0.239,0.368-0.552,0.666-0.938,0.891c-0.386,0.226-0.823,0.383-1.307,0.473c-0.484,0.088-0.967,0.133-1.445,0.133
	c-0.528,0-1.031-0.053-1.509-0.159c-0.479-0.107-0.903-0.283-1.27-0.526c-0.369-0.244-0.664-0.563-0.885-0.963
	c-0.221-0.397-0.344-0.883-0.368-1.452h1.565C22.963,11.838,23.043,12.12,23.191,12.351z"/>
<rect x="31.292" y="5.196" fill="#AEAEAE" width="1.564" height="9.213"/>
<path fill="#AEAEAE" d="M39.357,5.196v1.336h-1.898v5.721c0,0.179,0.017,0.321,0.046,0.427c0.03,0.108,0.089,0.19,0.175,0.25
	c0.086,0.061,0.206,0.098,0.359,0.116c0.153,0.017,0.354,0.026,0.599,0.026h0.718v1.337H38.16c-0.405,0-0.752-0.027-1.041-0.08
	c-0.289-0.054-0.522-0.152-0.7-0.295c-0.178-0.143-0.311-0.344-0.396-0.605c-0.086-0.261-0.13-0.605-0.13-1.033V6.532h-1.619V5.196
	h1.619V2.434h1.565v2.762H39.357z"/>
<path fill="#AEAEAE" d="M47.825,13.82c-0.712,0.523-1.609,0.784-2.688,0.784c-0.761,0-1.42-0.118-1.978-0.356
	c-0.559-0.237-1.029-0.569-1.409-0.997c-0.381-0.428-0.666-0.938-0.857-1.532c-0.19-0.595-0.297-1.242-0.322-1.944
	c0-0.7,0.111-1.341,0.332-1.924c0.221-0.582,0.531-1.086,0.93-1.514c0.398-0.428,0.871-0.76,1.417-0.998
	c0.546-0.237,1.145-0.356,1.795-0.356c0.847,0,1.549,0.169,2.108,0.508c0.558,0.338,1.006,0.769,1.344,1.292
	c0.338,0.523,0.572,1.095,0.7,1.711c0.128,0.619,0.181,1.207,0.156,1.765h-7.125c-0.012,0.403,0.038,0.787,0.147,1.149
	c0.11,0.362,0.288,0.684,0.533,0.962c0.246,0.28,0.559,0.502,0.939,0.669c0.38,0.167,0.829,0.249,1.344,0.249
	c0.663,0,1.207-0.149,1.63-0.445c0.423-0.297,0.703-0.748,0.838-1.354h1.546C48.998,12.52,48.537,13.299,47.825,13.82z
	 M47.447,7.904c-0.14-0.32-0.331-0.596-0.57-0.828c-0.239-0.231-0.522-0.416-0.847-0.552c-0.325-0.137-0.684-0.205-1.078-0.205
	c-0.405,0-0.771,0.068-1.094,0.205c-0.326,0.137-0.605,0.323-0.838,0.562c-0.233,0.237-0.417,0.513-0.552,0.829
	c-0.136,0.314-0.216,0.65-0.24,1.006h5.468C47.671,8.564,47.588,8.226,47.447,7.904z"/>
<path fill="#AEAEAE" d="M52.594,5.196v1.248h0.036c0.258-0.512,0.664-0.883,1.216-1.115c0.553-0.232,1.16-0.348,1.823-0.348
	c0.736,0,1.378,0.131,1.924,0.392c0.545,0.261,1,0.615,1.361,1.06c0.362,0.446,0.636,0.959,0.819,1.542
	c0.186,0.583,0.277,1.2,0.277,1.854c0,0.653-0.09,1.271-0.269,1.853c-0.178,0.582-0.447,1.09-0.809,1.523
	c-0.361,0.433-0.817,0.775-1.363,1.024c-0.545,0.249-1.181,0.374-1.905,0.374c-0.233,0-0.494-0.023-0.783-0.07
	c-0.287-0.048-0.573-0.125-0.855-0.231s-0.55-0.252-0.801-0.438c-0.251-0.184-0.463-0.412-0.636-0.686h-0.036v4.739h-1.564V5.196
	H52.594z M58.219,8.466c-0.117-0.41-0.296-0.775-0.534-1.096c-0.24-0.321-0.546-0.576-0.921-0.767
	c-0.375-0.189-0.812-0.284-1.316-0.284c-0.527,0-0.976,0.101-1.344,0.303c-0.369,0.202-0.669,0.466-0.902,0.792
	c-0.233,0.327-0.402,0.699-0.506,1.114c-0.104,0.416-0.157,0.837-0.157,1.266c0,0.452,0.056,0.887,0.167,1.31
	c0.109,0.422,0.284,0.793,0.524,1.113c0.239,0.32,0.548,0.579,0.929,0.775s0.841,0.294,1.381,0.294c0.539,0,0.991-0.102,1.354-0.303
	s0.654-0.469,0.874-0.801c0.222-0.334,0.381-0.714,0.479-1.142c0.099-0.427,0.147-0.867,0.147-1.319
	C58.393,9.294,58.336,8.875,58.219,8.466z"/>
<path fill="#AEAEAE" d="M61.67,7.914c0.197-0.588,0.491-1.099,0.884-1.533c0.393-0.433,0.876-0.774,1.456-1.025
	c0.576-0.249,1.238-0.374,1.987-0.374c0.761,0,1.426,0.125,1.997,0.374c0.572,0.251,1.053,0.592,1.446,1.025
	c0.392,0.435,0.687,0.945,0.883,1.533c0.197,0.588,0.295,1.22,0.295,1.896c0,0.678-0.098,1.308-0.295,1.89
	c-0.196,0.582-0.491,1.091-0.883,1.524c-0.394,0.434-0.874,0.771-1.446,1.015c-0.571,0.244-1.236,0.365-1.997,0.365
	c-0.749,0-1.411-0.121-1.987-0.365c-0.58-0.243-1.063-0.581-1.456-1.015s-0.687-0.942-0.884-1.524s-0.294-1.212-0.294-1.89
	C61.376,9.134,61.473,8.502,61.67,7.914z M63.263,11.3c0.153,0.433,0.365,0.796,0.635,1.087c0.271,0.29,0.586,0.514,0.948,0.669
	c0.362,0.152,0.747,0.23,1.151,0.23s0.788-0.078,1.15-0.23c0.363-0.155,0.679-0.379,0.947-0.669
	c0.271-0.291,0.482-0.654,0.637-1.087c0.152-0.434,0.23-0.93,0.23-1.489c0-0.558-0.078-1.054-0.23-1.487
	c-0.154-0.434-0.366-0.799-0.637-1.096c-0.269-0.296-0.584-0.523-0.947-0.678c-0.362-0.153-0.746-0.23-1.15-0.23
	s-0.789,0.077-1.151,0.23c-0.362,0.155-0.678,0.381-0.948,0.678c-0.27,0.297-0.481,0.662-0.635,1.096
	c-0.152,0.434-0.231,0.93-0.231,1.487C63.031,10.37,63.11,10.866,63.263,11.3z"/>
<rect x="72.551" y="5.196" fill="#AEAEAE" width="1.566" height="9.213"/>
<path fill="#AEAEAE" d="M78.02,5.196v1.46h0.036c0.651-1.116,1.682-1.675,3.094-1.675c0.626,0,1.148,0.084,1.563,0.25
	c0.418,0.167,0.757,0.397,1.014,0.694c0.258,0.298,0.44,0.652,0.544,1.061c0.104,0.41,0.156,0.864,0.156,1.363v6.059h-1.564V8.172
	c0-0.57-0.173-1.022-0.517-1.354s-0.815-0.498-1.417-0.498c-0.479,0-0.893,0.07-1.243,0.213c-0.35,0.144-0.642,0.345-0.874,0.606
	c-0.233,0.262-0.409,0.567-0.525,0.917c-0.115,0.351-0.175,0.733-0.175,1.15v5.203h-1.565V5.196H78.02z"/>
<path fill="#AEAEAE" d="M90.852,5.196v1.336h-1.896v5.721c0,0.179,0.015,0.321,0.046,0.427c0.03,0.108,0.088,0.19,0.174,0.25
	c0.086,0.061,0.208,0.098,0.36,0.116c0.152,0.017,0.353,0.026,0.598,0.026h0.718v1.337h-1.197c-0.404,0-0.751-0.027-1.04-0.08
	c-0.288-0.054-0.521-0.152-0.699-0.295s-0.31-0.344-0.396-0.605c-0.086-0.261-0.129-0.605-0.129-1.033V6.532H85.77V5.196h1.621
	V2.434h1.565v2.762H90.852z"/>
<path fill="#AEAEAE" d="M0.406,8.728l1.443,1.401l4.565,4.26L8.38,12.49c0.18-0.247,0.168-0.583-0.038-0.817l-1.796-1.575
	l0.006-0.001L4.616,8.219c-0.227-0.257-0.221-0.64,0.019-0.89l5.21-5.032L7.478,0L1.855,5.43L0.408,6.826
	C-0.136,7.352-0.136,8.203,0.406,8.728z"/>
<path fill="#AEAEAE" d="M15.947,11.162l-1.444-1.4L9.939,5.5L7.973,7.4c-0.18,0.246-0.168,0.582,0.038,0.816l1.796,1.576
	L9.801,9.793l1.936,1.878c0.227,0.257,0.221,0.64-0.02,0.889l-5.21,5.032l2.368,2.298l5.622-5.431l1.447-1.397
	C16.488,12.539,16.489,11.687,15.947,11.162z"/>
<ellipse fill="#AEAEAE" cx="32.074" cy="3.316" rx="0.912" ry="0.882"/>
<ellipse fill="#AEAEAE" cx="73.334" cy="3.316" rx="0.912" ry="0.882"/>
</svg>
